# xmcd
#
# Track frame offsets: 
#        150
#        19340
#        41298
#        68200
#        86025
#        113580
#        138835
#        161490
#        185163
#        204488
#        228745
#        252723
#
# Disc length: 3710 seconds
#
# Revision: 0
# Processed by: cddbd v1.5.2PL0 Copyright (c) Steve Scherf et al.
# Submitted via: ExactAudioCopy v1.0b3
#
DISCID=a80e7c0c
DTITLE=Thanh Thuy - Quen Nguoi Tinh Cu
DYEAR=1900
DGENRE=
TTITLE0=Cung dan lu thu
TTITLE1=Thuong ve mien Trung
TTITLE2=Duyen phan be bang, Khi toi chet
TTITLE3=Nhac sau
TTITLE4=Giot mua thu
TTITLE5=Mot chieu mua
TTITLE6=Long Me
TTITLE7=Nho mot nguoi
TTITLE8=Tu gia kinh thanh
TTITLE9=La thu khong gui
TTITLE10=Gia tu cuoc tinh, Kiep tha huong
TTITLE11=Quen nguoi tinh cu
EXTD=
EXTT0=
EXTT1=
EXTT2=
EXTT3=
EXTT4=
EXTT5=
EXTT6=
EXTT7=
EXTT8=
EXTT9=
EXTT10=
EXTT11=
PLAYORDER=
